<svg xmlns="http://www.w3.org/2000/svg" width="1200" height="630" viewBox="0 0 1200 630">
  <defs>
    <linearGradient id="bg" x1="0%" y1="0%" x2="100%" y2="100%">
      <stop offset="0%" style="stop-color:#1a1a2e"/>
      <stop offset="100%" style="stop-color:#16213e"/>
    </linearGradient>
  </defs>
  <rect width="1200" height="630" fill="url(#bg)"/>

  <!-- Pixel decorative blocks - top row -->
  <rect x="60" y="240" width="8" height="8" fill="#4ade80"/>
  <rect x="68" y="240" width="8" height="8" fill="#4ade80"/>
  <rect x="76" y="240" width="8" height="8" fill="#4ade80"/>
  <rect x="60" y="248" width="8" height="8" fill="#4ade80"/>
  <rect x="60" y="256" width="8" height="8" fill="#4ade80"/>
  <rect x="68" y="256" width="8" height="8" fill="#4ade80"/>
  <rect x="68" y="264" width="8" height="8" fill="#4ade80"/>
  <rect x="76" y="248" width="8" height="8" fill="#4ade80"/>

  <rect x="260" y="240" width="8" height="8" fill="#f59e0b"/>
  <rect x="268" y="240" width="8" height="8" fill="#f59e0b"/>
  <rect x="276" y="240" width="8" height="8" fill="#f59e0b"/>
  <rect x="260" y="248" width="8" height="8" fill="#f59e0b"/>
  <rect x="276" y="248" width="8" height="8" fill="#f59e0b"/>
  <rect x="260" y="256" width="8" height="8" fill="#f59e0b"/>
  <rect x="268" y="256" width="8" height="8" fill="#f59e0b"/>
  <rect x="276" y="256" width="8" height="8" fill="#f59e0b"/>
  <rect x="260" y="264" width="8" height="8" fill="#f59e0b"/>
  <rect x="268" y="272" width="8" height="8" fill="#f59e0b"/>
  <rect x="276" y="264" width="8" height="8" fill="#f59e0b"/>

  <rect x="460" y="240" width="8" height="8" fill="#d4a017"/>
  <rect x="468" y="240" width="8" height="8" fill="#d4a017"/>
  <rect x="476" y="240" width="8" height="8" fill="#d4a017"/>
  <rect x="468" y="248" width="8" height="8" fill="#d4a017"/>
  <rect x="460" y="256" width="8" height="8" fill="#d4a017"/>
  <rect x="468" y="256" width="8" height="8" fill="#d4a017"/>
  <rect x="476" y="256" width="8" height="8" fill="#d4a017"/>
  <rect x="460" y="264" width="8" height="8" fill="#d4a017"/>
  <rect x="468" y="264" width="8" height="8" fill="#d4a017"/>
  <rect x="468" y="272" width="8" height="8" fill="#d4a017"/>
  <rect x="476" y="264" width="8" height="8" fill="#d4a017"/>

  <!-- Pixel shapes - bottom row -->
  <rect x="60" y="400" width="8" height="8" fill="#3b82f6"/>
  <rect x="68" y="400" width="8" height="8" fill="#3b82f6"/>
  <rect x="76" y="400" width="8" height="8" fill="#3b82f6"/>
  <rect x="68" y="408" width="8" height="8" fill="#3b82f6"/>
  <rect x="76" y="408" width="8" height="8" fill="#3b82f6"/>
  <rect x="60" y="416" width="8" height="8" fill="#3b82f6"/>
  <rect x="68" y="416" width="8" height="8" fill="#3b82f6"/>
  <rect x="76" y="416" width="8" height="8" fill="#3b82f6"/>

  <rect x="260" y="400" width="8" height="8" fill="#ef4444"/>
  <rect x="260" y="408" width="8" height="8" fill="#ef4444"/>
  <rect x="260" y="416" width="8" height="8" fill="#ef4444"/>
  <rect x="268" y="400" width="8" height="8" fill="#ef4444"/>
  <rect x="276" y="400" width="8" height="8" fill="#ef4444"/>
  <rect x="268" y="416" width="8" height="8" fill="#ef4444"/>
  <rect x="276" y="416" width="8" height="8" fill="#ef4444"/>
  <rect x="260" y="424" width="8" height="8" fill="#ef4444"/>
  <rect x="268" y="424" width="8" height="8" fill="#ef4444"/>
  <rect x="276" y="424" width="8" height="8" fill="#ef4444"/>

  <rect x="460" y="400" width="8" height="8" fill="#a855f7"/>
  <rect x="468" y="400" width="8" height="8" fill="#a855f7"/>
  <rect x="476" y="400" width="8" height="8" fill="#a855f7"/>
  <rect x="460" y="408" width="8" height="8" fill="#a855f7"/>
  <rect x="476" y="408" width="8" height="8" fill="#a855f7"/>
  <rect x="460" y="416" width="8" height="8" fill="#a855f7"/>
  <rect x="468" y="416" width="8" height="8" fill="#a855f7"/>
  <rect x="476" y="416" width="8" height="8" fill="#a855f7"/>

  <!-- Text -->
  <text x="600" y="160" text-anchor="middle" font-family="Arial, Helvetica, sans-serif" font-size="88" font-weight="bold" fill="#ffffff" letter-spacing="4">GAMESHIN</text>
  <text x="600" y="210" text-anchor="middle" font-family="Arial, Helvetica, sans-serif" font-size="32" font-weight="bold" fill="#4ade80" letter-spacing="2">GAME HUB  ·  FREE ONLINE GAMES</text>
  <text x="600" y="500" text-anchor="middle" font-family="Arial, Helvetica, sans-serif" font-size="26" fill="#8888aa">Chinese Chess · Snake · Tetris · Gomoku · Chess · Pixel Jumper</text>
  <text x="600" y="560" text-anchor="middle" font-family="Arial, Helvetica, sans-serif" font-size="22" fill="#f59e0b">gameshin.com</text>
</svg>
